<svg width="30" height="30" viewBox="0 0 30 30" fill="none" xmlns="http://www.w3.org/2000/svg">
<path opacity="0.01" fill-rule="evenodd" clip-rule="evenodd" d="M0 0V30H30V0H0Z" fill="#1C8FF8" fill-opacity="0.338428"/>
<path fill-rule="evenodd" clip-rule="evenodd" d="M13.6 18.35V22.15C13.6 23.724 14.876 25 16.45 25L20.25 16.45V6H9.53398C8.58656 5.98929 7.77604 6.67823 7.63398 7.615L6.32298 16.165C6.23933 16.7161 6.40193 17.2762 6.76772 17.6969C7.1335 18.1175 7.66557 18.3563 8.22298 18.35H13.6Z" stroke="#6C7B8A" stroke-width="2" stroke-linecap="round" stroke-linejoin="round"/>
<path fill-rule="evenodd" clip-rule="evenodd" d="M20.25 6.00001H22.7865C23.8994 5.98033 24.8508 6.79697 25 7.90001V14.55C24.8508 15.6531 23.8994 16.4697 22.7865 16.45H20.25V6.00001Z" stroke="#6C7B8A" stroke-width="2" stroke-linecap="round" stroke-linejoin="round"/>
</svg>
