<svg width="23" height="24" viewBox="0 0 23 24" fill="none" xmlns="http://www.w3.org/2000/svg">
<path d="M10.1437 2.39561L9.87371 4.61968C9.81978 5.06394 9.51986 5.44145 9.09603 5.59856C8.44272 5.84073 7.88375 6.15637 7.31262 6.64027C6.96536 6.93449 6.4801 7.01039 6.05791 6.8365L3.85934 5.93097L2.47533 8.32512L4.3539 9.81068C4.72389 10.1033 4.88743 10.5822 4.77251 11.0366C4.71761 11.2537 4.71112 11.4866 4.71112 11.9999C4.71112 12.5132 4.71761 12.7461 4.77251 12.9632C4.88743 13.4176 4.72389 13.8965 4.3539 14.1891L2.47534 15.6746L3.85934 18.0688L6.05791 17.1633C6.44472 17.0039 6.88735 17.0535 7.22834 17.2942C7.93464 17.7929 8.48986 18.1765 9.09603 18.4012C9.51986 18.5583 9.81978 18.9358 9.87371 19.3801L10.1437 21.6041H12.8564L13.1264 19.3801C13.1804 18.9358 13.4803 18.5583 13.9041 18.4012C14.5574 18.159 15.1164 17.8434 15.6875 17.3595C16.0348 17.0653 16.52 16.9894 16.9422 17.1633L19.1408 18.0688L20.5248 15.6746L18.6462 14.1891C18.2762 13.8965 18.1127 13.4176 18.2276 12.9632C18.2825 12.7461 18.289 12.5132 18.289 11.9999C18.289 11.4865 18.2825 11.2537 18.2276 11.0366C18.1127 10.5822 18.2762 10.1033 18.6462 9.81068L20.5248 8.32512L19.1408 5.93097L16.9422 6.8365C16.5554 6.99582 16.1128 6.94629 15.7718 6.70552C15.0655 6.20682 14.5103 5.82326 13.9041 5.59856C13.4803 5.44145 13.1804 5.06394 13.1264 4.61968L12.8564 2.39561H10.1437ZM8.4745 0.545705C8.86199 0.213743 9.38325 -0.00012207 9.93895 -0.00012207H13.0612C14.2506 -0.00012207 15.0405 0.91823 15.2252 1.83085C15.2313 1.86138 15.2363 1.89214 15.2401 1.92305L15.4511 3.66158C15.8779 3.87788 16.2706 4.12712 16.6282 4.37047L18.3517 3.66058L18.3678 3.65412C18.8004 3.48305 19.3201 3.40648 19.8495 3.55186C20.398 3.70245 20.8359 4.05886 21.1254 4.5358L21.1384 4.55779L22.6709 7.20879C23.0396 7.74607 23.0512 8.34991 22.9328 8.81829C22.8109 9.30014 22.5382 9.72704 22.2115 10.0499C22.1799 10.0812 22.1466 10.1107 22.1117 10.1383L20.6977 11.2564C20.7129 11.4986 20.7128 11.7297 20.7127 11.9426C20.7126 11.9618 20.7126 11.9809 20.7126 11.9999C20.7126 12.0188 20.7126 12.0379 20.7127 12.0572C20.7128 12.27 20.7129 12.5012 20.6977 12.7433L22.1117 13.8615C22.1466 13.8891 22.1799 13.9186 22.2115 13.9498C22.5027 14.2377 22.7964 14.6328 22.929 15.131C23.0705 15.6625 23.0048 16.2314 22.6942 16.7506L21.151 19.4202C20.8703 19.9459 20.3828 20.2575 19.9267 20.3998C19.45 20.5486 18.8924 20.5531 18.3678 20.3456L18.3517 20.3392L16.6649 19.6444C16.2713 19.923 15.8695 20.1556 15.4492 20.3536L15.2467 22.0221C15.2186 22.6385 14.8989 23.1342 14.5256 23.4541C14.1381 23.786 13.6169 23.9999 13.0612 23.9999H9.93895C8.74951 23.9999 7.95962 23.0815 7.77497 22.1689C7.76879 22.1384 7.76382 22.1076 7.76007 22.0767L7.54902 20.3382C7.1222 20.1219 6.72958 19.8726 6.37194 19.6293L4.64839 20.3392L4.63236 20.3456C4.19973 20.5167 3.68006 20.5933 3.1506 20.4479C2.60216 20.2973 2.16427 19.9409 1.87478 19.464L1.86175 19.442L0.300633 16.7414C0.272838 16.6933 0.248449 16.6434 0.227643 16.592C-0.108587 15.7611 -0.0287808 14.5555 0.90041 13.852L2.30242 12.7433C2.28722 12.5012 2.28736 12.2701 2.28749 12.0572C2.2875 12.0379 2.28751 12.0188 2.28751 11.9999C2.28751 11.9809 2.2875 11.9618 2.28749 11.9426C2.28736 11.7297 2.28722 11.4986 2.30242 11.2564L0.888476 10.1383C0.853563 10.1107 0.820223 10.0812 0.788609 10.0499C0.497421 9.76208 0.203733 9.36698 0.0711017 8.86878C-0.0703861 8.3373 -0.00469233 7.76843 0.30589 7.24923L1.84917 4.57956C2.12982 4.05383 2.61738 3.74229 3.07342 3.59993C3.55013 3.45112 4.10778 3.4467 4.63236 3.65412L4.64839 3.66058L6.33528 4.35537C6.72887 4.07678 7.13064 3.84417 7.5509 3.64612L7.75344 1.97769C7.78149 1.36122 8.10119 0.86552 8.4745 0.545705ZM6.5806 11.9034C6.5806 9.31292 8.78183 7.137 11.4025 7.137C14.0232 7.137 16.2244 9.31291 16.2244 11.9034C16.2244 14.4727 14.142 16.6699 11.4025 16.6699C8.66301 16.6699 6.5806 14.4727 6.5806 11.9034ZM11.4025 9.53273C10.1204 9.53273 9.00421 10.636 9.00421 11.9034C9.00421 13.192 10.044 14.2741 11.4025 14.2741C12.761 14.2741 13.8008 13.192 13.8008 11.9034C13.8008 10.636 12.6846 9.53273 11.4025 9.53273Z" fill="white"/>
</svg>
