<svg width="30" height="30" viewBox="0 0 30 30" fill="none" xmlns="http://www.w3.org/2000/svg">
<path opacity="0.01" fill-rule="evenodd" clip-rule="evenodd" d="M0 0V30H30V0H0Z" fill="#1C8FF8" fill-opacity="0.338428"/>
<path fill-rule="evenodd" clip-rule="evenodd" d="M17.4 12.65V8.85C17.4 7.27599 16.124 6 14.55 6L10.75 14.55V25H21.466C22.4134 25.0107 23.2239 24.3218 23.366 23.385L24.677 14.835C24.7607 14.2839 24.5981 13.7238 24.2323 13.3031C23.8665 12.8825 23.3344 12.6437 22.777 12.65H17.4Z" stroke="#6C7B8A" stroke-width="2" stroke-linecap="round" stroke-linejoin="round"/>
<path fill-rule="evenodd" clip-rule="evenodd" d="M10.75 25H7.9C6.85066 25 6 24.1493 6 23.1V16.45C6 15.4006 6.85066 14.55 7.9 14.55H10.75V25Z" stroke="#6C7B8A" stroke-width="2" stroke-linecap="round" stroke-linejoin="round"/>
</svg>
