<svg width="21" height="17" viewBox="0 0 21 17" fill="none" xmlns="http://www.w3.org/2000/svg">
<path fill-rule="evenodd" clip-rule="evenodd" d="M20.493 -0.000244142L0.206898 -0.000244246C0.0930576 -0.000244247 -4.95906e-05 0.0863799 -4.959e-05 0.192212L-4.95826e-05 1.53976C-4.95821e-05 1.64563 0.0930576 1.73233 0.206898 1.73233L20.493 1.73233C20.6068 1.73233 20.7 1.64563 20.7 1.53976L20.7 0.192212C20.7 0.0863613 20.6068 -0.000244141 20.493 -0.000244142ZM13.0417 6.78546L0.621674 6.78546C0.507834 6.78546 0.414726 6.69874 0.414726 6.59287L0.414726 5.24532C0.414726 5.13947 0.507834 5.05287 0.621674 5.05287L13.0417 5.05287C13.1555 5.05287 13.2488 5.13945 13.2488 5.24532L13.2488 6.59287C13.2488 6.69876 13.1555 6.78546 13.0417 6.78546ZM13.2488 11.6946C13.2488 11.8005 13.1555 11.8871 13.0417 11.8871L0.621674 11.8871C0.507834 11.8871 0.414726 11.8005 0.414726 11.6946L0.414726 10.3471C0.414726 10.2412 0.507834 10.1546 0.621674 10.1546L13.0417 10.1546C13.1555 10.1546 13.2488 10.2412 13.2488 10.3471L13.2488 11.6946ZM0.206898 15.2077L20.493 15.2077C20.6068 15.2077 20.7 15.2942 20.7 15.4001L20.7 16.7476C20.7 16.8535 20.6068 16.9401 20.493 16.9401L0.206898 16.9401C0.0930577 16.9401 -4.94989e-05 16.8535 -4.94995e-05 16.7476L-4.95069e-05 15.4001C-4.95074e-05 15.2942 0.0930577 15.2077 0.206898 15.2077ZM15.8694 8.6384L19.9136 11.6006C20.0662 11.7113 20.2862 11.6102 20.2862 11.4321L20.2862 5.50538C20.2862 5.32737 20.0637 5.22868 19.9136 5.33937L15.8694 8.30389C15.7529 8.39059 15.7529 8.55416 15.8694 8.6384Z" fill="white"/>
</svg>
