<svg width="21" height="18" viewBox="0 0 21 18" fill="none" xmlns="http://www.w3.org/2000/svg">
<path fill-rule="evenodd" clip-rule="evenodd" d="M20.4933 0.881714L0.207211 0.881714C0.0933704 0.881714 0.000263215 0.968338 0.000263215 1.07417L0.000263223 2.42172C0.000263223 2.52759 0.0933704 2.61429 0.207211 2.61429L20.4933 2.61429C20.6072 2.61429 20.7003 2.52759 20.7003 2.42172L20.7003 1.07417C20.7003 0.968319 20.6072 0.881714 20.4933 0.881714ZM13.042 7.66742L0.621986 7.66742C0.508146 7.66742 0.415039 7.5807 0.415039 7.47483L0.415039 6.12728C0.415039 6.02143 0.508146 5.93482 0.621986 5.93482L13.042 5.93482C13.1558 5.93482 13.2491 6.02141 13.2491 6.12728L13.2491 7.47483C13.2491 7.58072 13.1558 7.66742 13.042 7.66742ZM13.2491 12.5766C13.2491 12.6824 13.1558 12.769 13.042 12.769L0.621986 12.769C0.508146 12.769 0.415039 12.6824 0.415039 12.5766L0.415039 11.229C0.415039 11.1232 0.508146 11.0366 0.621986 11.0366L13.042 11.0366C13.1558 11.0366 13.2491 11.1232 13.2491 11.229L13.2491 12.5766ZM0.207211 16.0896L20.4933 16.0896C20.6072 16.0896 20.7003 16.1762 20.7003 16.282L20.7003 17.6296C20.7003 17.7355 20.6072 17.822 20.4933 17.822L0.207211 17.822C0.0933705 17.822 0.000263306 17.7355 0.000263306 17.6296L0.000263298 16.282C0.000263298 16.1762 0.0933705 16.0896 0.207211 16.0896ZM20.1991 9.52035L16.1549 12.4826C16.0023 12.5932 15.7823 12.4922 15.7823 12.314L15.7823 6.38734C15.7823 6.20933 16.0048 6.11064 16.1549 6.22132L20.1991 9.18585C20.3156 9.27255 20.3156 9.43612 20.1991 9.52035Z" fill="white"/>
</svg>
